<svg xmlns="http://www.w3.org/2000/svg" viewBox="0 0 1024 1024" width="1024" height="1024" shape-rendering="geometricPrecision">
<g fill="#e01467">
<path d="M 519.0 840.5 L 479.0 838.5 L 451.0 830.5 L 429.0 822.5 L 385.0 798.5 L 356.5 773.0 L 338.5 752.0 L 322.5 728.0 L 306.0 695.5 L 235.0 750.5 L 211.0 760.5 L 192.0 761.5 L 188.0 758.5 L 185.0 759.5 L 165.5 744.0 L 155.5 728.0 L 153.5 703.0 L 158.5 688.0 L 158.5 673.0 L 136.5 635.0 L 132.5 606.0 L 136.5 590.0 L 154.5 563.0 L 158.5 553.0 L 159.5 540.0 L 155.5 520.0 L 155.5 504.0 L 159.5 488.0 L 174.0 471.5 L 186.0 463.5 L 212.0 462.5 L 230.0 472.5 L 232.0 471.5 L 233.0 474.5 L 304.0 527.5 L 309.5 522.0 L 321.5 496.0 L 343.5 464.0 L 368.0 438.5 L 375.5 434.0 L 340.0 419.5 L 321.0 400.5 L 318.0 400.5 L 300.0 419.5 L 275.0 432.5 L 240.0 431.5 L 228.0 427.5 L 208.0 415.5 L 194.5 401.0 L 184.5 383.0 L 180.5 367.0 L 180.5 347.0 L 184.5 333.0 L 199.5 306.0 L 198.5 304.0 L 202.5 301.0 L 262.5 194.0 L 272.0 184.5 L 285.0 177.5 L 735.0 177.5 L 744.0 179.5 L 754.0 184.5 L 764.5 195.0 L 833.5 317.0 L 839.5 324.0 L 838.5 326.0 L 843.5 335.0 L 847.5 369.0 L 839.5 391.0 L 826.5 408.0 L 809.0 422.5 L 788.0 432.5 L 752.0 431.5 L 730.0 422.5 L 709.0 402.5 L 705.0 402.5 L 691.0 417.5 L 682.0 423.5 L 660.0 430.5 L 657.5 434.0 L 681.5 459.0 L 703.5 488.0 L 722.0 527.5 L 726.0 527.5 L 785.0 478.5 L 811.0 465.5 L 838.0 462.5 L 852.0 470.5 L 863.5 482.0 L 871.5 502.0 L 871.5 522.0 L 868.5 535.0 L 869.5 556.0 L 888.5 586.0 L 894.5 606.0 L 894.5 623.0 L 890.5 637.0 L 869.5 673.0 L 872.5 721.0 L 865.5 740.0 L 855.0 751.5 L 844.0 757.5 L 835.0 760.5 L 813.0 760.5 L 797.0 751.5 L 795.0 752.5 L 726.0 697.5 L 721.0 696.5 L 719.5 704.0 L 716.5 706.0 L 703.5 735.0 L 692.5 750.0 L 666.0 779.5 L 637.0 802.5 L 604.0 820.5 L 571.0 833.5 L 567.0 832.5 L 542.0 839.5 L 519.0 840.5 Z"/>
<path d="M 525.5 817.0 L 563.0 811.5 L 601.0 797.5 L 635.0 776.5 L 654.0 761.5 L 670.5 744.0 L 692.5 711.0 L 709.5 667.0 L 712.5 654.0 L 711.5 648.0 L 715.5 640.0 L 715.5 605.0 L 712.5 602.0 L 714.5 599.0 L 712.5 578.0 L 702.5 538.0 L 680.5 494.0 L 660.5 466.0 L 621.0 432.5 L 591.0 416.5 L 572.0 409.5 L 547.0 423.5 L 530.0 428.5 L 510.0 430.5 L 485.0 425.5 L 459.0 411.5 L 418.0 429.5 L 389.0 449.5 L 363.5 472.0 L 337.5 509.0 L 325.5 535.0 L 312.5 581.0 L 314.5 588.0 L 311.5 590.0 L 314.5 599.0 L 312.5 610.0 L 313.5 632.0 L 316.5 653.0 L 325.5 685.0 L 340.5 716.0 L 360.5 747.0 L 388.0 773.5 L 423.0 796.5 L 460.0 811.5 L 483.0 816.5 L 489.0 814.5 L 504.0 817.5 L 525.5 817.0 Z"/>
<path d="M 393.5 411.0 L 408.0 406.5 L 425.0 395.5 L 433.5 386.0 L 441.5 366.0 L 450.0 361.5 L 456.5 367.0 L 465.5 386.0 L 476.0 396.5 L 497.0 407.5 L 522.0 408.5 L 546.0 400.5 L 559.5 390.0 L 566.5 379.0 L 568.5 369.0 L 576.0 361.5 L 580.0 361.5 L 585.5 367.0 L 587.5 375.0 L 596.5 390.0 L 616.0 405.5 L 635.0 410.5 L 661.0 409.5 L 679.0 399.5 L 689.5 389.0 L 698.5 367.0 L 707.0 360.5 L 714.5 366.0 L 723.5 386.0 L 737.0 399.5 L 761.0 409.5 L 778.0 409.5 L 796.0 403.5 L 811.5 391.0 L 823.5 368.0 L 824.5 351.0 L 815.5 327.0 L 749.5 212.0 L 739.0 199.5 L 384.0 198.5 L 285.0 200.5 L 205.5 339.0 L 201.5 360.0 L 207.5 381.0 L 220.0 396.5 L 232.0 404.5 L 247.0 409.5 L 266.0 409.5 L 277.0 406.5 L 291.0 398.5 L 303.5 385.0 L 311.5 366.0 L 320.0 360.5 L 327.5 365.0 L 334.5 384.0 L 350.0 400.5 L 376.0 411.5 L 384.0 409.5 L 393.5 411.0 Z"/>
<path d="M 208.5 739.0 L 235.0 725.5 L 298.5 673.0 L 290.5 620.0 L 291.5 585.0 L 297.5 550.0 L 231.0 496.5 L 210.0 485.5 L 200.0 483.5 L 186.0 487.5 L 181.5 492.0 L 177.5 502.0 L 176.5 516.0 L 180.5 534.0 L 179.5 558.0 L 173.5 572.0 L 163.5 584.0 L 156.5 598.0 L 153.5 615.0 L 156.5 628.0 L 163.5 642.0 L 175.5 656.0 L 180.5 670.0 L 180.5 687.0 L 176.5 698.0 L 175.5 718.0 L 182.5 731.0 L 189.0 736.5 L 196.0 739.5 L 208.5 739.0 Z"/>
<path d="M 830.5 739.0 L 846.0 730.5 L 851.5 719.0 L 851.5 703.0 L 846.5 682.0 L 847.5 669.0 L 855.5 651.0 L 867.5 637.0 L 872.5 622.0 L 873.5 605.0 L 863.5 584.0 L 854.5 574.0 L 847.5 557.0 L 846.5 536.0 L 850.5 520.0 L 848.5 498.0 L 843.0 489.5 L 825.0 483.5 L 810.0 487.5 L 789.0 501.5 L 729.5 550.0 L 737.5 593.0 L 736.5 638.0 L 729.5 673.0 L 796.0 727.5 L 815.0 737.5 L 830.5 739.0 Z"/>
<path d="M 761.0 595.5 L 754.0 595.5 L 746.5 589.0 L 746.5 581.0 L 751.0 575.5 L 811.0 554.5 L 818.0 556.5 L 822.5 562.0 L 822.5 569.0 L 817.0 575.5 L 761.0 595.5 Z"/>
<path d="M 275.0 595.5 L 268.0 595.5 L 213.0 576.5 L 205.5 570.0 L 205.5 561.0 L 211.0 555.5 L 216.0 554.5 L 275.0 574.5 L 281.5 581.0 L 281.5 588.0 L 275.0 595.5 Z"/>
<path d="M 815.0 664.5 L 807.0 664.5 L 756.0 647.5 L 749.5 643.0 L 747.5 633.0 L 754.0 625.5 L 760.0 625.5 L 815.0 643.5 L 822.5 651.0 L 821.5 660.0 L 815.0 664.5 Z"/>
<path d="M 220.0 664.5 L 211.0 663.5 L 205.5 657.0 L 205.5 651.0 L 212.0 643.5 L 243.0 635.5 L 269.0 625.5 L 274.0 625.5 L 280.5 631.0 L 281.5 639.0 L 275.0 646.5 L 220.0 664.5 Z"/>
</g>
<g fill="#fe5190">
<path d="M 208.0 739.5 L 196.0 739.5 L 191.0 735.5 L 189.0 736.5 L 177.5 722.0 L 176.5 702.0 L 181.5 686.0 L 181.5 671.0 L 175.5 654.0 L 159.5 634.0 L 154.5 621.0 L 156.5 599.0 L 175.5 571.0 L 181.5 553.0 L 181.5 534.0 L 176.5 515.0 L 177.5 503.0 L 187.5 488.0 L 194.0 484.5 L 207.0 484.5 L 223.0 492.5 L 255.0 515.5 L 295.0 547.5 L 297.5 552.0 L 291.5 576.0 L 289.5 621.0 L 291.5 623.0 L 290.5 633.0 L 292.5 635.0 L 293.5 654.0 L 298.5 671.0 L 241.0 719.5 L 218.0 735.5 L 208.0 739.5 Z"/>
<path d="M 829.0 739.5 L 813.0 736.5 L 795.0 725.5 L 737.0 679.5 L 730.5 671.0 L 734.5 658.0 L 735.5 641.0 L 737.5 639.0 L 736.5 629.0 L 738.5 627.0 L 738.5 593.0 L 730.5 551.0 L 780.0 509.5 L 804.0 492.5 L 820.0 484.5 L 837.0 486.5 L 849.5 501.0 L 850.5 520.0 L 845.5 537.0 L 847.5 562.0 L 870.5 598.0 L 873.5 612.0 L 870.5 629.0 L 853.5 652.0 L 846.5 669.0 L 846.5 689.0 L 851.5 703.0 L 850.5 721.0 L 843.0 732.5 L 829.0 739.5 Z"/>
<path d="M 266.0 409.5 L 247.0 409.5 L 237.0 406.5 L 224.0 399.5 L 214.5 391.0 L 206.5 379.0 L 202.5 366.0 L 201.5 357.0 L 205.5 339.0 L 285.0 200.5 L 368.0 199.5 L 320.5 342.0 L 319.5 361.0 L 311.5 366.0 L 303.5 385.0 L 291.0 398.5 L 277.0 406.5 L 266.0 409.5 Z"/>
<path d="M 778.0 409.5 L 761.0 409.5 L 737.0 399.5 L 723.5 386.0 L 714.5 366.0 L 707.5 361.0 L 706.5 342.0 L 659.0 199.5 L 741.0 200.5 L 815.5 327.0 L 824.5 351.0 L 821.5 374.0 L 807.0 395.5 L 792.0 405.5 L 778.0 409.5 Z"/>
<path d="M 525.0 817.5 L 490.5 816.0 L 506.0 805.5 L 530.5 779.0 L 543.5 756.0 L 553.5 723.0 L 555.5 690.0 L 551.5 665.0 L 538.5 635.0 L 519.5 613.0 L 532.0 611.5 L 557.0 615.5 L 582.0 624.5 L 604.0 637.5 L 624.5 656.0 L 638.5 675.0 L 649.5 699.0 L 654.5 724.0 L 654.5 744.0 L 652.5 761.0 L 635.0 776.5 L 614.0 790.5 L 587.0 803.5 L 563.0 811.5 L 525.0 817.5 Z"/>
<path d="M 393.0 742.5 L 358.0 741.5 L 340.5 716.0 L 327.5 690.0 L 319.5 666.0 L 313.5 632.0 L 313.5 601.0 L 338.0 622.5 L 359.0 634.5 L 383.0 642.5 L 409.0 646.5 L 441.0 645.5 L 467.0 639.5 L 487.0 631.5 L 513.0 615.5 L 508.5 639.0 L 502.5 655.0 L 490.5 678.0 L 471.5 703.0 L 442.0 726.5 L 414.0 738.5 L 393.0 742.5 Z"/>
<path d="M 520.0 605.5 L 518.5 601.0 L 522.5 583.0 L 538.5 545.0 L 553.5 523.0 L 573.0 502.5 L 593.0 487.5 L 625.0 473.5 L 654.0 469.5 L 662.0 470.5 L 666.5 475.0 L 689.5 509.0 L 700.5 533.0 L 711.5 572.0 L 714.0 601.5 L 693.0 584.5 L 669.0 572.5 L 641.0 565.5 L 614.0 564.5 L 593.0 567.5 L 567.0 575.5 L 542.0 588.5 L 520.0 605.5 Z"/>
<path d="M 511.0 608.5 L 476.0 604.5 L 440.0 590.5 L 416.0 573.5 L 391.5 543.0 L 393.5 533.0 L 410.5 508.0 L 431.0 488.5 L 459.5 469.0 L 462.5 456.0 L 454.0 445.5 L 439.0 444.5 L 415.0 457.5 L 390.5 480.0 L 374.0 502.5 L 372.5 500.0 L 367.5 470.0 L 405.0 437.5 L 436.0 420.5 L 459.0 411.5 L 480.0 423.5 L 509.5 432.0 L 497.5 449.0 L 484.5 481.0 L 480.5 502.0 L 480.5 532.0 L 489.5 570.0 L 511.0 608.5 Z"/>
<path d="M 760.5 596.0 L 816.0 577.5 L 822.5 572.0 L 822.5 560.0 L 817.0 554.5 L 811.0 553.5 L 751.0 574.5 L 745.5 580.0 L 746.5 591.0 L 753.0 596.5 L 760.5 596.0 Z"/>
<path d="M 274.5 596.0 L 280.5 592.0 L 281.5 588.0 L 281.5 581.0 L 277.0 574.5 L 216.0 553.5 L 206.5 558.0 L 203.5 566.0 L 209.0 575.5 L 269.0 596.5 L 274.5 596.0 Z"/>
<path d="M 219.5 665.0 L 276.0 647.5 L 282.5 638.0 L 280.5 629.0 L 270.0 624.5 L 210.0 643.5 L 205.5 648.0 L 206.5 661.0 L 209.0 663.5 L 219.5 665.0 Z"/>
<path d="M 815.5 665.0 L 823.5 657.0 L 822.5 648.0 L 816.0 642.5 L 807.0 641.5 L 759.0 624.5 L 752.0 625.5 L 747.5 630.0 L 746.5 640.0 L 752.0 646.5 L 808.0 665.5 L 815.5 665.0 Z"/>
</g>
<g fill="#91d9fe">
<path d="M 519.0 407.5 L 502.0 406.5 L 483.0 399.5 L 464.5 382.0 L 459.5 368.0 L 454.0 362.5 L 447.5 361.0 L 451.5 343.0 L 467.0 199.5 L 559.5 201.0 L 579.5 360.0 L 569.5 366.0 L 560.5 386.0 L 548.0 397.5 L 537.0 403.5 L 519.0 407.5 Z"/>
</g>
<g fill="#fefefe">
<path d="M 488.0 815.5 L 455.0 808.5 L 422.0 794.5 L 385.0 769.5 L 359.5 743.0 L 390.0 744.5 L 413.0 740.5 L 438.0 730.5 L 459.0 716.5 L 478.5 697.0 L 496.5 671.0 L 509.5 641.0 L 515.5 614.0 L 513.0 612.5 L 481.0 632.5 L 449.0 642.5 L 406.0 644.5 L 386.0 641.5 L 366.0 635.5 L 347.0 626.5 L 330.0 614.5 L 313.5 598.0 L 316.5 571.0 L 325.5 539.0 L 338.5 510.0 L 352.5 488.0 L 367.0 470.5 L 368.5 490.0 L 371.5 503.0 L 374.0 505.5 L 387.5 486.0 L 406.0 466.5 L 435.0 447.5 L 449.0 445.5 L 459.5 453.0 L 459.5 466.0 L 454.0 472.5 L 426.0 490.5 L 409.5 507.0 L 396.5 525.0 L 388.5 541.0 L 405.5 565.0 L 422.0 580.5 L 437.0 590.5 L 474.0 605.5 L 493.0 609.5 L 513.0 610.5 L 514.5 609.0 L 495.5 580.0 L 484.5 547.0 L 481.5 511.0 L 486.5 480.0 L 496.5 454.0 L 512.0 430.5 L 526.0 430.5 L 543.0 426.5 L 556.0 420.5 L 570.0 410.5 L 592.0 418.5 L 617.0 431.5 L 645.0 452.5 L 659.5 468.0 L 641.0 468.5 L 626.0 471.5 L 609.0 477.5 L 583.0 492.5 L 552.5 522.0 L 541.5 537.0 L 529.5 559.0 L 520.5 584.0 L 515.5 611.0 L 535.5 633.0 L 546.5 655.0 L 553.5 686.0 L 552.5 719.0 L 543.5 752.0 L 529.5 778.0 L 506.0 803.5 L 488.0 815.5 Z"/>
<path d="M 651.0 409.5 L 627.0 407.5 L 608.0 398.5 L 596.5 388.0 L 589.5 376.0 L 586.5 366.0 L 579.5 361.0 L 560.0 199.5 L 657.5 200.0 L 704.5 341.0 L 706.5 360.0 L 697.5 366.0 L 690.5 385.0 L 678.0 398.5 L 666.0 405.5 L 651.0 409.5 Z"/>
<path d="M 392.0 409.5 L 372.0 408.5 L 351.0 399.5 L 335.5 383.0 L 329.5 366.0 L 320.5 360.0 L 322.5 341.0 L 369.5 200.0 L 464.0 199.5 L 448.5 359.0 L 440.5 365.0 L 434.5 382.0 L 422.0 396.5 L 409.0 404.5 L 392.0 409.5 Z"/>
<path d="M 654.0 759.5 L 656.5 727.0 L 651.5 700.0 L 641.5 677.0 L 626.5 656.0 L 604.0 635.5 L 577.0 620.5 L 556.0 613.5 L 539.0 610.5 L 518.0 610.5 L 518.0 608.5 L 540.0 591.5 L 562.0 579.5 L 584.0 571.5 L 611.0 566.5 L 644.0 567.5 L 670.0 574.5 L 690.0 584.5 L 714.5 604.0 L 712.5 646.0 L 702.5 685.0 L 686.5 719.0 L 669.5 743.0 L 654.0 759.5 Z"/>
</g>
</svg>
